<?xml version="1.0" standalone="no"?><!DOCTYPE svg PUBLIC "-//W3C//DTD SVG 1.1//EN" "http://www.w3.org/Graphics/SVG/1.1/DTD/svg11.dtd"><svg t="1783513449861" class="icon" viewBox="0 0 1024 1024" version="1.1" xmlns="http://www.w3.org/2000/svg" p-id="3493" xmlns:xlink="http://www.w3.org/1999/xlink" width="200" height="200"><path d="M348.032 550.208c4.192 34.656 4.192 65.856 0.064 93.632l30.848 7.808c38.592-106.848 64.16-201.92 76.704-285.28 9.504-63.328 11.84-122.08 6.944-176.288 50.432 57.184 88 110.848 112.736 160.96 29.76 60.352 44.352 122.4 43.84 186.432l-0.64 82.08 31.424-75.84c14.56-35.136 24.704-74.368 30.4-117.696 2.56-19.2 3.968-37.248 4.256-54.176 66.784 101.952 93.984 198.528 82.24 289.984-13.344 103.712-82.24 182.592-208.832 237.344a16 16 0 1 0 12.704 29.376c136.288-58.944 212.96-146.752 227.84-262.656 14.72-114.4-26.048-234.464-121.312-359.808l-40.64-53.504 12.16 66.08c5.216 28.32 5.216 62.72-0.128 103.168-1.408 10.752-3.136 21.248-5.12 31.456a456.032 456.032 0 0 0-39.488-116.384c-31.648-64.128-82.56-132.832-152.64-206.304l-37.248-39.04 9.92 53.024c12.032 64.128 12.032 136.48-0.064 217.024-8.48 56.352-23.168 118.464-44.032 186.336a513.632 513.632 0 0 0-0.192-1.6c-4.48-36.64-15.392-93.664-32.832-171.264l-25.184-112.16-6.4 114.752c-3.328 60.064-8.768 105.6-16.128 136.224-4.256 17.6-9.344 32.704-19.552 59.712-7.52 19.84-6.208 16.352-8.32 22.176-19.648 53.568-25.44 90.688-15.776 136.96 21.216 101.344 96.64 167.168 223.392 196.704a16 16 0 0 0 7.264-31.168c-115.424-26.88-180.896-84-199.328-172.128-8.224-39.296-3.264-70.912 14.464-119.36 2.08-5.664 0.8-2.24 8.224-21.856 10.656-28.192 16.096-44.256 20.736-63.552 2.56-10.688 4.896-22.88 6.976-36.576 5.088 26.592 8.64 48.416 10.72 65.408z" fill="#F0F0F0" p-id="3494"></path></svg>