<?xml version="1.0" standalone="no"?><!DOCTYPE svg PUBLIC "-//W3C//DTD SVG 1.1//EN" "http://www.w3.org/Graphics/SVG/1.1/DTD/svg11.dtd"><svg t="1783595100857" class="icon" viewBox="0 0 1024 1024" version="1.1" xmlns="http://www.w3.org/2000/svg" p-id="5372" xmlns:xlink="http://www.w3.org/1999/xlink" width="200" height="200"><path d="M767.64 939.27c-6.93 0-13.86-2.13-19.75-6.39L511.92 762.47l-236 170.35c-11.82 8.52-27.78 8.52-39.58-0.07a33.72 33.72 0 0 1-12.27-37.62l89.18-277.09L78.32 446.22c-11.77-8.6-16.67-23.79-12.16-37.65a33.738 33.738 0 0 1 31.99-23.3l291.04-0.78 90.84-276.54a33.734 33.734 0 0 1 32.05-23.2h0.01c14.57 0.01 27.5 9.37 32.04 23.22l90.66 276.55 291.08 0.91c14.58 0.04 27.47 9.45 31.98 23.31 4.5 13.86-0.41 29.05-12.18 37.65L710.68 618.13l89.07 277.09c4.46 13.87-0.5 29.05-12.29 37.61a33.668 33.668 0 0 1-19.82 6.44zM511.93 687.14c6.93 0 13.86 2.13 19.75 6.39l172.4 124.5L639 615.59c-4.45-13.84 0.47-28.98 12.21-37.55l171.68-125.48-212.67-0.66c-14.54-0.04-27.42-9.4-31.95-23.22l-66.23-202.03-66.37 202.03c-4.54 13.81-17.42 23.17-31.96 23.2l-212.61 0.57 171.63 125.54c11.74 8.58 16.65 23.72 12.19 37.56l-65.15 202.42 172.4-124.44a33.756 33.756 0 0 1 19.76-6.39z" p-id="5373"></path></svg>