<?xml version="1.0" standalone="no"?><!DOCTYPE svg PUBLIC "-//W3C//DTD SVG 1.1//EN" "http://www.w3.org/Graphics/SVG/1.1/DTD/svg11.dtd"><svg t="1783594918616" class="icon" viewBox="0 0 1024 1024" version="1.1" xmlns="http://www.w3.org/2000/svg" p-id="3425" xmlns:xlink="http://www.w3.org/1999/xlink" width="200" height="200"><path d="M512 174.08a337.92 337.92 0 1 1 0 675.84 337.92 337.92 0 0 1 0-675.84z m-69.9392 356.352c-26.624-11.5712-42.2912-18.0224-66.048 1.024-52.224 41.984-55.5008 91.9552-55.5008 113.0496 0 21.0944 35.84 86.7328 191.6928 86.7328 166.0928 0 191.6928-65.536 191.6928-86.7328 0-21.0944-3.3792-71.0656-55.6032-113.0496-23.4496-18.7392-39.3216-12.5952-65.9456-1.024a175.104 175.104 0 0 1-140.288 0z m70.144-269.312c-59.2896 0-107.4176 47.9232-107.4176 107.1104a107.3152 107.3152 0 0 0 214.7328 0c0-59.1872-48.128-107.1104-107.3152-107.1104z" p-id="3426"></path></svg>