<?xml version="1.0" standalone="no"?><!DOCTYPE svg PUBLIC "-//W3C//DTD SVG 1.1//EN" "http://www.w3.org/Graphics/SVG/1.1/DTD/svg11.dtd"><svg t="1783567081522" class="icon" viewBox="0 0 1024 1024" version="1.1" xmlns="http://www.w3.org/2000/svg" p-id="2586" xmlns:xlink="http://www.w3.org/1999/xlink" width="200" height="200"><path d="M511.005696 64.339968c-246.877184 0-447.01184 200.133632-447.01184 447.012864 0 246.878208 200.133632 447.01184 447.01184 447.01184 246.878208 0 447.012864-200.133632 447.012864-447.01184C958.01856 264.4736 757.883904 64.339968 511.005696 64.339968zM752.128 397.060096 449.774592 699.41248c-5.9648 5.9648-16.311296 5.285888-23.113728-1.51552l-20.267008-20.267008c-0.002048-0.003072-0.00512-0.00512-0.007168-0.007168l-135.46496-135.46496c-6.801408-6.801408-6.801408-17.828864 0-24.630272l36.944896-36.944896c6.801408-6.802432 17.828864-6.802432 24.630272 0L438.976512 587.062272l251.57632-251.57632c5.963776-5.963776 16.31232-5.284864 23.112704 1.516544l36.944896 36.943872C757.413888 380.7488 758.091776 391.09632 752.128 397.060096z" fill="#dbdbdb" p-id="2587"></path></svg>